<svg version="1.1" id="Layer_1" xmlns="http://www.w3.org/2000/svg" xmlns:xlink="http://www.w3.org/1999/xlink" x="0px" y="0px"
	 width="100%" viewBox="0 0 178 178" enable-background="new 0 0 178 178" xml:space="preserve">
<path fill="#FDFDFE" opacity="1.000000" stroke="none" 
	d="
M1.000000,63.000000 
	C1.000000,42.000004 1.000000,21.500010 1.000000,1.000011 
	C60.333313,1.000007 119.666626,1.000007 178.999954,1.000004 
	C178.999969,60.333298 178.999969,119.666595 178.999985,178.999908 
	C119.666718,178.999939 60.333427,178.999939 1.000071,178.999969 
	C1.000000,140.500000 1.000000,102.000000 1.000000,63.000000 
M95.970535,23.970037 
	C95.970535,23.970037 95.923843,23.869457 95.383087,23.991446 
	C95.211395,24.303137 95.039711,24.614828 94.989883,24.958502 
	C94.989883,24.958502 94.895393,24.875174 94.308113,25.026775 
	C93.561615,25.697891 92.815117,26.369007 91.298042,27.001247 
	C90.287445,26.892849 89.276848,26.784452 88.112648,25.989685 
	C86.442558,24.646137 84.772461,23.302589 82.575829,21.864922 
	C82.397682,21.872173 82.219536,21.879425 81.774712,21.363640 
	C81.237556,21.150230 80.700409,20.936823 80.171707,20.292910 
	C80.171707,20.292910 80.055229,19.878376 79.930374,19.187517 
	C73.733147,13.623012 66.375473,14.185946 59.063171,15.598132 
	C55.292576,16.326330 50.690094,16.196264 49.032547,20.995224 
	C49.032547,20.995224 49.121178,21.100363 48.373013,21.000978 
	C44.747814,21.963367 42.288250,23.989454 41.912338,28.497013 
	C41.927971,28.667009 41.943607,28.837008 41.540005,29.474934 
	C41.221413,30.240665 40.902817,31.006397 40.217449,31.806839 
	C40.217449,31.806839 39.874249,31.940784 39.159321,32.121990 
	C38.778305,33.753635 38.397289,35.385284 37.987705,37.659958 
	C37.876431,38.073097 37.765160,38.486237 37.071831,39.073982 
	C37.063686,40.049652 37.055546,41.025326 37.088993,42.806194 
	C37.180294,43.869972 37.271595,44.933750 37.199181,46.732273 
	C37.730793,48.839520 38.262402,50.946762 38.818344,53.757572 
	C39.495647,55.197041 40.172951,56.636509 40.947098,58.735531 
	C41.941746,59.888485 42.936390,61.041439 44.181633,62.749798 
	C45.119148,63.484318 46.056667,64.218834 47.367275,65.257278 
	C47.608448,65.471565 47.815960,65.714592 47.851337,66.793098 
	C47.909874,67.059593 47.968407,67.326088 47.293362,67.342110 
	C46.528645,67.245239 45.763927,67.148369 44.613220,66.615891 
	C44.055588,66.541000 43.497955,66.466110 42.101124,66.161797 
	C40.080059,66.192368 38.058990,66.222939 35.334515,66.073143 
	C34.217793,66.376556 33.101067,66.679977 31.149380,66.982155 
	C30.396460,67.243996 29.643539,67.505836 28.627457,67.654121 
	C28.400879,67.708748 28.299309,67.852081 27.661200,68.109360 
	C27.445259,68.154823 27.229317,68.200294 26.483227,68.060379 
	C26.293787,68.355827 26.104347,68.651276 25.997414,68.981895 
	C25.997414,68.981895 25.939854,68.913116 25.320038,69.065399 
	C24.488178,69.681511 23.656317,70.297615 22.355808,71.006165 
	C22.355808,71.006165 22.042223,71.366501 21.490072,71.436012 
	C20.991520,71.957314 20.492966,72.478615 19.410681,73.213280 
	C18.604555,74.136322 17.798428,75.059364 16.457745,76.187027 
	C16.171841,76.672836 15.885939,77.158646 15.978478,77.952484 
	C15.978478,77.952484 15.586659,77.661957 15.128236,77.905350 
	C15.015118,78.224281 14.902000,78.543221 14.907609,78.910927 
	C14.907609,78.910927 14.838312,78.802887 14.338296,79.007660 
	C14.242738,79.342110 14.147181,79.676567 13.792311,80.191856 
	C13.792311,80.191856 13.774215,80.507477 13.267898,80.840752 
	C13.181170,81.226456 13.094440,81.612167 12.763546,82.168991 
	C12.763546,82.168991 12.769094,82.467094 12.195045,82.989288 
	C11.659281,84.995796 11.123518,87.002296 10.507461,89.141052 
	C10.507461,89.141052 10.472342,89.291725 10.133825,89.806236 
	C10.162434,90.208214 10.191043,90.610191 10.076762,91.663445 
	C10.118918,92.103844 10.161076,92.544243 10.017016,93.851204 
	C10.940725,98.068787 11.864434,102.286362 12.908223,107.160049 
	C17.812193,117.127548 26.480253,121.618156 37.058960,123.187744 
	C28.273691,142.149216 37.054993,156.920090 48.338120,162.861450 
	C56.849720,167.343369 65.539330,167.446777 74.233139,163.323105 
	C82.958748,159.184357 87.749565,151.838654 90.340538,141.486923 
	C93.945282,159.664932 110.160439,169.751495 126.327354,165.176529 
	C143.923386,160.197128 150.789658,143.349686 143.308578,123.118317 
	C154.916504,121.396484 164.102722,116.350243 168.831909,104.049355 
	C170.660004,97.253296 171.425064,90.496124 168.011017,83.952057 
	C168.011017,83.952057 168.114441,83.935898 168.112656,83.258247 
	C167.444199,82.128792 166.775742,80.999336 166.025055,79.957825 
	C166.025055,79.957825 166.137665,79.915207 166.017853,79.372284 
	C165.698746,79.193733 165.379639,79.015190 164.991730,78.273972 
	C164.699051,77.834473 164.406357,77.394981 163.946609,76.320168 
	C162.664459,75.168419 161.382324,74.016663 160.040466,72.969162 
	C160.040466,72.969162 160.141785,72.904610 159.973618,72.389915 
	C159.653839,72.251289 159.334045,72.112656 159.000870,72.001404 
	C159.000870,72.001404 159.025070,71.981819 158.746796,71.410141 
	C157.820419,71.001724 156.894058,70.593307 155.337509,69.898453 
	C153.710266,69.199982 152.083008,68.501518 150.011505,67.249245 
	C148.657120,66.948883 147.302719,66.648521 145.144775,66.145004 
	C143.772064,66.166939 142.399338,66.188881 140.187759,66.014389 
	C138.474716,66.083290 136.761673,66.152184 134.731628,65.531303 
	C135.246933,64.422333 135.762238,63.313366 136.308792,62.269802 
	C136.308792,62.269802 136.380951,62.262978 136.839386,62.133377 
	C137.112915,61.922981 137.247330,61.645184 137.241959,61.214294 
	C137.241959,61.214294 137.157059,61.202675 137.712982,61.066174 
	C137.906921,60.744286 138.100861,60.422398 138.690155,59.843975 
	C138.921783,59.584110 138.984283,59.288483 139.085159,58.310650 
	C139.816650,56.709610 140.548157,55.108570 141.733597,53.052841 
	C141.875748,52.435898 142.017883,51.818954 142.650452,50.515976 
	C142.446060,46.337898 142.241684,42.159817 142.062378,37.238647 
	C140.737579,34.481869 139.412781,31.725090 137.986313,28.276243 
	C136.317886,26.531794 134.649445,24.787346 132.665878,22.465881 
	C131.184357,21.562660 129.702820,20.659441 127.783562,19.241150 
	C126.547424,18.802565 125.311295,18.363979 123.641403,17.547308 
	C123.105965,17.336288 122.570534,17.125269 121.923553,16.279350 
	C120.943214,16.212196 119.962868,16.145044 118.241409,16.100128 
	C117.502823,16.046930 116.764244,15.993732 115.876251,15.234236 
	C112.715004,13.257970 110.155594,14.253512 108.002144,17.054850 
	C108.002144,17.054850 108.108467,17.253117 107.429482,17.062084 
	C106.959244,17.065943 106.489014,17.069801 105.708450,16.596426 
	C105.123367,17.039146 104.538292,17.481867 103.967804,18.004330 
	C103.967804,18.004330 103.915176,17.942663 103.184601,17.918219 
	C102.114464,18.594286 101.044327,19.270353 99.813431,20.402172 
	C99.813431,20.402172 99.743210,20.880310 99.344971,20.950212 
	C99.344971,20.950212 99.039093,21.214640 98.590477,21.068731 
	C98.590477,21.068731 98.118729,21.067781 97.602768,21.162361 
	C97.397385,21.432402 97.192001,21.702442 96.880447,22.436245 
	C96.880447,22.436245 96.894249,22.911800 96.910454,22.971170 
	C96.910454,22.971170 96.957413,22.931381 96.417130,23.025799 
	C96.234695,23.325073 96.052261,23.624348 95.970535,23.970037 
z"/>
<path fill="#050161" opacity="1.000000" stroke="none" 
	d="
M13.774215,80.507477 
	C13.774215,80.507477 13.792311,80.191856 14.146633,79.970093 
	C14.613409,79.433182 14.725862,79.118034 14.838313,78.802887 
	C14.838312,78.802887 14.907609,78.910927 15.114357,78.796272 
	C15.409623,78.341728 15.498141,78.001846 15.586659,77.661957 
	C15.586659,77.661957 15.978478,77.952484 16.104580,77.777496 
	C16.484554,77.062477 16.738428,76.522438 16.992302,75.982407 
	C17.798428,75.059364 18.604555,74.136322 20.000521,73.098633 
	C21.074314,72.444824 21.558268,71.905663 22.042221,71.366501 
	C22.042223,71.366501 22.355808,71.006165 22.959904,70.991196 
	C24.355953,70.288528 25.147903,69.600822 25.939854,68.913116 
	C25.939854,68.913116 25.997414,68.981895 26.181538,68.925613 
	C26.658770,68.741676 26.874674,68.533821 27.013376,68.245758 
	C27.229317,68.200294 27.445259,68.154823 28.112858,68.103912 
	C28.564514,68.098465 28.890621,67.767685 28.890621,67.767685 
	C29.643539,67.505836 30.396460,67.243996 31.774403,67.243057 
	C33.612259,67.087143 34.825092,66.670326 36.037926,66.253517 
	C38.058990,66.222939 40.080059,66.192368 42.565979,66.541138 
	C43.686962,66.964149 44.343086,67.007828 44.999210,67.051498 
	C45.763927,67.148369 46.528645,67.245239 47.731308,67.653671 
	C48.515976,68.160851 48.862701,68.356468 49.188866,68.764427 
	C49.448227,68.980270 49.728142,68.983772 50.296661,69.030739 
	C51.053387,69.392670 51.521507,69.711143 52.044601,70.372620 
	C53.075199,71.131226 54.050819,71.546837 55.014874,71.981140 
	C55.003307,71.999840 55.035675,71.968559 55.073395,72.316071 
	C56.077057,73.101578 57.042992,73.539574 58.006176,73.988075 
	C58.003426,73.998581 58.022217,73.986023 58.062927,74.330528 
	C59.063168,75.116379 60.022697,75.557732 60.992332,75.997208 
	C61.002438,75.995331 61.005531,76.015610 61.103073,76.240242 
	C61.401390,76.745300 61.671356,76.916893 62.252449,77.058640 
	C62.647148,77.211464 62.799915,77.285286 63.015305,77.681763 
	C64.349327,78.682808 65.620728,79.361198 66.928337,80.029495 
	C66.964539,80.019409 66.974831,80.093849 67.102585,80.311012 
	C67.530830,80.659485 67.831306,80.790794 68.423599,81.020676 
	C69.454292,81.448502 70.193184,81.777748 70.960327,82.064880 
	C70.988571,82.022766 70.899437,82.071121 71.044968,82.337318 
	C72.052017,83.104950 72.913528,83.606377 73.951591,84.366501 
	C74.695923,84.852409 75.263695,85.079613 75.855682,85.245743 
	C75.879890,85.184662 75.749306,85.199371 75.845856,85.463440 
	C76.269989,85.896797 76.597565,86.066078 77.046379,86.450104 
	C77.603317,86.867493 78.039009,87.070122 78.689651,87.546982 
	C81.862427,89.898567 84.711868,92.165161 87.834923,93.954079 
	C88.979393,94.609642 91.148529,94.732018 92.203850,94.068916 
	C96.632713,91.286034 100.816757,88.113518 105.069672,85.062805 
	C105.048904,85.041931 105.039742,85.098495 105.316162,85.099480 
	C105.775314,85.076523 105.958038,85.052589 106.323547,84.963737 
	C106.741241,84.770554 106.917809,84.586365 107.144432,84.096512 
	C107.286644,83.668472 107.320465,83.490158 107.293884,83.264847 
	C107.233475,83.217857 107.224083,83.370636 107.537537,83.353546 
	C108.256638,83.229012 108.662292,83.121559 109.286255,83.021393 
	C109.824265,82.697517 110.143944,82.366341 110.510017,81.819817 
	C110.556404,81.604462 110.641441,81.172165 110.880600,81.182236 
	C111.422600,81.086220 111.733917,81.019936 112.255783,80.939346 
	C112.718712,80.756226 112.909790,80.559448 113.217148,80.053085 
	C113.938812,79.539047 114.474419,79.266838 115.328400,78.977463 
	C116.056984,78.539627 116.467194,78.118958 116.909760,77.523979 
	C116.942116,77.349670 116.989922,76.998337 116.994850,76.999779 
	C116.999779,77.001221 116.999557,76.992455 117.244064,77.004349 
	C117.488579,77.016243 117.976845,76.980133 118.199287,76.922607 
	C118.708748,76.721230 118.913528,76.500938 119.124542,75.980743 
	C119.212997,75.757286 119.298004,75.284210 119.257141,75.229172 
	C119.216270,75.174126 119.149506,75.293884 119.451973,75.281204 
	C120.143791,75.164154 120.533150,75.059792 121.158401,74.900375 
	C121.699532,74.692970 121.909035,74.455978 122.193512,73.900208 
	C122.881432,73.424606 123.398659,73.183159 124.152634,72.893585 
	C124.696701,72.697136 124.905937,72.461655 125.186821,71.893997 
	C125.890938,71.402565 126.425346,71.156166 127.141312,71.162827 
	C129.229355,70.037262 131.135849,68.658638 133.368927,67.221062 
	C134.135818,67.153778 134.576126,67.145454 135.277985,67.388687 
	C137.368561,67.163765 139.197601,66.687286 141.026627,66.210815 
	C142.399338,66.188881 143.772064,66.166939 145.668915,66.597206 
	C147.613953,67.300621 149.034866,67.551834 150.455765,67.803047 
	C152.083008,68.501518 153.710266,69.199982 155.726990,70.369972 
	C157.085999,71.221603 158.055542,71.601715 159.025070,71.981819 
	C159.025070,71.981819 159.000870,72.001404 159.113342,72.228500 
	C159.531128,72.605263 159.836456,72.754936 160.141785,72.904617 
	C160.141785,72.904610 160.040466,72.969162 160.070267,73.272476 
	C161.437943,74.702354 162.775803,75.828926 164.113678,76.955490 
	C164.406357,77.394981 164.699051,77.834473 165.114563,78.813011 
	C165.537491,79.539772 165.837585,79.727493 166.137665,79.915207 
	C166.137665,79.915207 166.025055,79.957825 166.029327,80.273537 
	C166.727219,81.704796 167.420837,82.820343 168.114441,83.935898 
	C168.114441,83.935898 168.011017,83.952057 168.010223,84.369743 
	C168.092514,91.396912 168.175629,98.006386 168.258728,104.615868 
	C164.102722,116.350243 154.916504,121.396484 143.308578,123.118317 
	C150.789658,143.349686 143.923386,160.197128 126.327354,165.176529 
	C110.160439,169.751495 93.945282,159.664932 90.340538,141.486923 
	C87.749565,151.838654 82.958748,159.184357 74.233139,163.323105 
	C65.539330,167.446777 56.849720,167.343369 48.338120,162.861450 
	C37.054993,156.920090 28.273691,142.149216 37.058960,123.187744 
	C26.480253,121.618156 17.812193,117.127548 12.885273,106.404549 
	C11.975960,101.427582 11.089596,97.206108 10.203232,92.984642 
	C10.161076,92.544243 10.118918,92.103844 10.348341,91.088646 
	C10.570727,90.106476 10.521535,89.699097 10.472342,89.291725 
	C10.472342,89.291725 10.507461,89.141052 10.897331,88.891418 
	C11.781165,86.583549 12.275129,84.525322 12.769094,82.467094 
	C12.769094,82.467094 12.763546,82.168991 13.128614,81.904724 
	C13.587194,81.262802 13.680704,80.885139 13.774215,80.507477 
z"/>
<path fill="#FE8749" opacity="1.000000" stroke="none" 
	d="
M37.653885,38.899376 
	C37.765160,38.486237 37.876431,38.073097 38.205353,37.312019 
	C38.423004,36.964077 38.829193,36.906223 39.116135,36.939293 
	C39.595234,36.984844 39.787388,36.997318 39.984581,37.258564 
	C39.989620,37.507336 40.001511,38.004841 40.077671,38.383045 
	C43.419464,39.507603 46.679245,40.869049 49.951679,40.900169 
	C70.703682,41.097519 91.458572,41.027267 112.212212,40.957169 
	C114.143265,40.950645 116.072250,40.330341 118.260971,40.103111 
	C119.012688,40.476059 119.505630,40.740921 120.138107,41.325394 
	C120.520966,42.762321 120.764297,43.879635 120.668533,45.144299 
	C116.289902,45.528027 112.251015,45.954826 108.210716,45.968678 
	C87.910240,46.038284 67.609390,45.997860 47.308678,46.001865 
	C44.212536,46.002476 41.116405,46.033340 37.856289,46.032494 
	C37.692310,46.014767 37.362896,45.997528 37.362900,45.997528 
	C37.271595,44.933750 37.180294,43.869972 37.280342,42.150578 
	C37.532425,40.629765 37.593155,39.764572 37.653885,38.899376 
z"/>
<path fill="#FD6E65" opacity="1.000000" stroke="none" 
	d="
M141.279648,53.507530 
	C140.548157,55.108570 139.816650,56.709610 138.661804,58.487778 
	C134.359802,56.187206 130.079941,56.944870 125.828445,56.960129 
	C102.528900,57.043770 79.228615,56.938984 55.929295,57.049839 
	C50.901436,57.073757 45.876522,57.717655 40.850254,58.075977 
	C40.172951,56.636509 39.495647,55.197041 39.286945,53.389450 
	C53.768230,53.014271 67.781525,52.922043 81.793442,53.022266 
	C98.349403,53.140690 114.904037,53.479874 131.459763,53.522713 
	C132.638535,53.525761 133.821594,51.882870 135.334808,51.004211 
	C136.109924,51.003799 136.552872,51.004482 137.041794,51.328850 
	C138.058243,51.768738 139.028748,51.884937 140.279877,52.186119 
	C140.800217,52.749908 141.039932,53.128719 141.279648,53.507530 
z"/>
<path fill="#FE775E" opacity="1.000000" stroke="none" 
	d="
M135.002655,51.005306 
	C133.821594,51.882870 132.638535,53.525761 131.459763,53.522713 
	C114.904037,53.479874 98.349403,53.140690 81.793442,53.022266 
	C67.781525,52.922043 53.768230,53.014271 39.274780,53.037670 
	C38.262402,50.946762 37.730793,48.839520 37.281036,46.364899 
	C37.362896,45.997528 37.692310,46.014767 37.894493,46.391808 
	C39.423668,47.826138 40.705307,49.722584 42.085415,49.797176 
	C48.467213,50.142097 54.876385,49.995319 61.275753,49.997711 
	C80.738823,50.004986 100.202065,50.039368 119.664764,49.954948 
	C122.446518,49.942886 125.225677,49.332535 128.400421,48.998802 
	C130.864090,49.667450 132.933380,50.336380 135.002655,51.005306 
z"/>
<path fill="#FE6872" opacity="1.000000" stroke="none" 
	d="
M40.898674,58.405754 
	C45.876522,57.717655 50.901436,57.073757 55.929295,57.049839 
	C79.228615,56.938984 102.528900,57.043770 125.828445,56.960129 
	C130.079941,56.944870 134.359802,56.187206 138.558044,58.810997 
	C138.984283,59.288483 138.921783,59.584110 138.213318,60.047852 
	C137.543350,60.568707 137.350204,60.885693 137.157059,61.202675 
	C137.157059,61.202675 137.241959,61.214294 136.937195,61.155476 
	C136.421814,61.067444 136.211197,61.038231 135.628098,60.965202 
	C134.304321,60.651680 133.355972,60.160118 132.401276,60.147446 
	C124.910141,60.048027 117.417801,60.014645 109.925804,60.009270 
	C89.172401,59.994377 68.418755,59.965069 47.666172,60.096020 
	C46.416759,60.103901 45.175880,61.463676 43.931034,62.194397 
	C42.936390,61.041439 41.941746,59.888485 40.898674,58.405754 
z"/>
<path fill="#FEAC04" opacity="1.000000" stroke="none" 
	d="
M80.163254,20.723413 
	C80.700409,20.936823 81.237556,21.150230 81.988037,21.868752 
	C82.471031,22.570538 82.740692,22.767210 83.011635,22.975695 
	C83.012909,22.987505 83.036232,22.991991 83.138718,23.219616 
	C83.455421,23.729149 83.738388,23.890770 84.048431,23.962040 
	C84.006767,23.991976 84.066635,23.908651 84.151367,24.150848 
	C84.516510,24.573540 84.796921,24.754036 85.044609,24.920883 
	C85.011894,24.907234 85.079079,24.884596 85.157379,25.138523 
	C85.531693,25.566729 85.827705,25.741005 86.115211,25.943150 
	C86.106705,25.971016 86.063202,25.932245 86.033043,26.198421 
	C86.002045,26.643183 86.001205,26.821768 85.909805,27.397156 
	C85.151253,28.189190 84.485451,28.924711 83.814926,28.929045 
	C72.156548,29.004398 60.495571,29.090158 48.841511,28.856749 
	C47.521385,28.830309 46.239452,26.897018 45.017654,25.638218 
	C45.270977,25.166370 45.512619,25.000710 46.092655,24.855282 
	C46.557091,24.468603 46.749283,24.158155 47.047192,23.634371 
	C47.371964,23.167879 47.647945,23.023600 48.208260,22.916092 
	C48.724094,22.675768 48.919888,22.432888 49.069695,21.863733 
	C49.117939,21.441540 49.119556,21.270952 49.121178,21.100363 
	C49.121178,21.100363 49.032547,20.995224 49.405861,21.037741 
	C50.834957,20.642546 51.890743,20.204836 53.029629,20.180344 
	C54.069489,21.059612 55.015587,21.900787 55.984806,21.928322 
	C60.792965,22.064920 65.613876,22.139946 70.417015,21.931263 
	C73.677101,21.789619 76.915276,21.143774 80.163254,20.723413 
z"/>
<path fill="#FE647A" opacity="1.000000" stroke="none" 
	d="
M44.056335,62.472095 
	C45.175880,61.463676 46.416759,60.103901 47.666172,60.096020 
	C68.418755,59.965069 89.172401,59.994377 109.925804,60.009270 
	C117.417801,60.014645 124.910141,60.048027 132.401276,60.147446 
	C133.355972,60.160118 134.304321,60.651680 135.688858,61.289043 
	C136.208405,61.858799 136.294678,62.060890 136.380951,62.262978 
	C136.380951,62.262978 136.308792,62.269802 135.860687,62.309769 
	C133.453598,62.566429 131.494888,62.968540 129.535538,62.971752 
	C103.818665,63.013908 78.101509,62.960651 52.385162,63.083755 
	C50.585228,63.092373 48.791046,64.302139 46.994186,64.953354 
	C46.056667,64.218834 45.119148,63.484318 44.056335,62.472095 
z"/>
<path fill="#EA5894" opacity="1.000000" stroke="none" 
	d="
M51.989628,70.029617 
	C51.521507,69.711143 51.053387,69.392670 50.133614,68.854645 
	C49.681961,68.635094 49.209427,68.552086 49.209427,68.552086 
	C48.862701,68.356468 48.515976,68.160851 48.098095,67.778900 
	C47.968407,67.326088 47.909874,67.059593 48.294369,66.396301 
	C49.484776,66.007004 50.232155,66.014503 51.056644,66.390167 
	C53.545528,67.505508 55.936562,68.805611 58.372932,68.897003 
	C65.905762,69.179581 73.455872,69.001587 81.240303,69.304283 
	C83.529182,70.070541 85.583000,70.959213 87.623894,70.930435 
	C100.764511,70.745110 113.902298,70.359077 127.012672,70.255890 
	C126.984329,70.472855 126.959755,70.909767 126.959755,70.909760 
	C126.425346,71.156166 125.890938,71.402565 124.937325,71.918159 
	C124.317375,72.438805 124.116631,72.690254 123.915878,72.941711 
	C123.398659,73.183159 122.881432,73.424606 121.964691,73.861481 
	C121.565170,74.056892 121.101181,74.036156 120.775375,74.048965 
	C120.016212,74.472481 119.582863,74.883179 119.149506,75.293884 
	C119.149506,75.293884 119.216270,75.174126 118.880112,75.133514 
	C118.030006,75.064171 117.516075,75.035446 116.766220,74.727127 
	C112.037018,73.965912 107.537910,73.029121 103.051521,73.086472 
	C88.546562,73.271896 74.046272,73.822685 59.290588,74.183014 
	C58.698738,74.084229 58.360477,74.035126 58.022217,73.986023 
	C58.022217,73.986023 58.003426,73.998581 57.867039,73.709442 
	C56.832325,72.936394 55.934002,72.452477 55.035675,71.968559 
	C55.035675,71.968559 55.003307,71.999840 54.878387,71.698761 
	C53.832188,70.941658 52.910908,70.485641 51.989628,70.029617 
z"/>
<path fill="#FB6380" opacity="1.000000" stroke="none" 
	d="
M50.979530,66.022011 
	C50.232155,66.014503 49.484776,66.007004 48.363605,65.992928 
	C47.815960,65.714592 47.608448,65.471565 47.180733,65.105316 
	C48.791046,64.302139 50.585228,63.092373 52.385162,63.083755 
	C78.101509,62.960651 103.818665,63.013908 129.535538,62.971752 
	C131.494888,62.968540 133.453598,62.566429 135.845078,62.277069 
	C135.762238,63.313366 135.246933,64.422333 134.873718,65.830040 
	C135.015823,66.128777 135.096802,66.072144 134.783798,65.923347 
	C133.665100,66.126068 132.859421,66.477592 131.814331,66.925423 
	C131.405960,67.054115 131.236984,67.086487 130.875870,66.766708 
	C127.014175,64.625130 123.370773,63.315388 119.624847,66.997253 
	C118.501236,66.997101 117.752190,66.996567 116.910416,66.600174 
	C115.486252,65.802986 114.156639,65.059769 112.823090,65.052620 
	C97.540314,64.970688 82.256187,64.914474 66.974136,65.047737 
	C61.640171,65.094246 56.310928,65.681633 50.979530,66.022011 
z"/>
<path fill="#FBA520" opacity="1.000000" stroke="none" 
	d="
M44.939812,25.847939 
	C46.239452,26.897018 47.521385,28.830309 48.841511,28.856749 
	C60.495571,29.090158 72.156548,29.004398 83.814926,28.929045 
	C84.485451,28.924711 85.151253,28.189190 86.174416,27.393784 
	C86.705513,26.980373 86.881447,26.967140 87.268913,26.983543 
	C87.480453,27.013178 87.871658,27.184847 87.826492,27.184021 
	C87.781319,27.183193 87.780739,27.154312 88.005440,27.444792 
	C88.538399,28.393021 88.846657,29.050768 88.985443,30.049189 
	C85.004990,34.177425 80.193855,32.147194 75.885712,32.352726 
	C64.936447,32.875103 53.960011,32.827644 42.686493,32.868622 
	C41.780430,32.410007 41.182327,32.091068 40.584225,31.772129 
	C40.902817,31.006397 41.221413,30.240665 41.978840,29.127399 
	C42.600151,28.498901 42.782627,28.217939 42.984474,27.963074 
	C43.003845,27.989172 42.942612,27.967400 43.185005,27.854015 
	C43.598827,27.436075 43.770256,27.131517 44.035812,26.598610 
	C44.320122,26.072470 44.590076,25.898361 44.939812,25.847939 
z"/>
<path fill="#FEB004" opacity="1.000000" stroke="none" 
	d="
M99.039093,21.214640 
	C99.039093,21.214640 99.344971,20.950212 99.799240,20.914112 
	C100.503738,20.664062 100.753960,20.450111 101.257683,20.022400 
	C102.328796,19.502775 103.146416,19.196913 104.151321,19.161474 
	C105.595238,18.705639 106.851852,17.979376 108.108467,17.253117 
	C108.108467,17.253117 108.002144,17.054850 108.337555,17.035938 
	C109.443947,16.985216 110.214920,16.953405 111.201630,17.207539 
	C115.863144,18.200293 116.857262,20.142456 113.861107,23.821306 
	C113.229324,24.597046 113.268105,25.918913 112.618286,27.063187 
	C107.841423,27.757807 103.451973,28.442797 99.044205,28.976477 
	C96.068443,29.336777 94.884789,27.653599 94.895393,24.875174 
	C94.895393,24.875174 94.989883,24.958502 95.189651,24.866043 
	C95.567558,24.472210 95.745697,24.170834 95.923843,23.869457 
	C95.923843,23.869457 95.970535,23.970037 96.177612,23.879234 
	C96.575592,23.502747 96.766502,23.217064 96.957413,22.931381 
	C96.957413,22.931381 96.910454,22.971170 97.220833,22.956867 
	C98.033836,22.366589 98.536469,21.790615 99.039093,21.214640 
z"/>
<path fill="#FD9733" opacity="1.000000" stroke="none" 
	d="
M40.400837,31.789484 
	C41.182327,32.091068 41.780430,32.410007 42.780285,33.263729 
	C44.846905,34.199028 46.510265,34.940441 48.176876,34.947834 
	C66.788177,35.030369 85.401100,35.105259 104.010704,34.909107 
	C107.676422,34.870468 111.329887,33.668892 115.016113,33.323307 
	C115.362419,34.431805 115.681610,35.220642 115.703857,36.303108 
	C98.185043,36.731411 80.961922,36.783085 63.741814,37.037819 
	C55.825344,37.154919 47.914761,37.670147 40.001511,38.004841 
	C40.001511,38.004841 39.989620,37.507336 39.990978,36.843861 
	C39.952805,35.347355 39.913273,34.514320 39.879524,33.389450 
	C39.881622,32.712002 39.877934,32.326393 39.874249,31.940784 
	C39.874249,31.940784 40.217449,31.806839 40.400837,31.789484 
z"/>
<path fill="#FBB70D" opacity="1.000000" stroke="none" 
	d="
M80.167480,20.508162 
	C76.915276,21.143774 73.677101,21.789619 70.417015,21.931263 
	C65.613876,22.139946 60.792965,22.064920 55.984806,21.928322 
	C55.015587,21.900787 54.069489,21.059612 53.242874,19.936897 
	C54.818653,18.803265 56.264294,18.326298 58.021942,17.888973 
	C58.870495,17.684177 59.407032,17.439741 60.396584,17.068844 
	C67.251472,17.921049 73.653351,18.899714 80.055229,19.878376 
	C80.055229,19.878376 80.171707,20.292910 80.167480,20.508162 
z"/>
<path fill="#FBA520" opacity="1.000000" stroke="none" 
	d="
M94.601753,24.950974 
	C94.884789,27.653599 96.068443,29.336777 99.044205,28.976477 
	C103.451973,28.442797 107.841423,27.757807 112.874870,27.065464 
	C113.682114,26.995224 113.853149,26.996754 114.016388,27.397713 
	C113.998802,28.861643 113.989014,29.926144 113.565720,31.047714 
	C106.612167,31.704494 100.078064,32.420425 93.524490,32.756641 
	C92.706497,32.798607 91.785416,30.831020 91.016777,29.509310 
	C91.437172,28.496077 91.752892,27.768097 92.068619,27.040121 
	C92.815117,26.369007 93.561615,25.697891 94.601753,24.950974 
z"/>
<path fill="#F8C229" opacity="1.000000" stroke="none" 
	d="
M114.024185,26.998281 
	C113.853149,26.996754 113.682114,26.995224 113.254486,26.991417 
	C113.268105,25.918913 113.229324,24.597046 113.861107,23.821306 
	C116.857262,20.142456 115.863144,18.200293 111.482841,16.971207 
	C113.040771,16.279465 114.533218,16.110001 116.025658,15.940536 
	C116.764244,15.993732 117.502823,16.046930 118.832832,16.340115 
	C120.294533,16.691484 121.164818,16.802868 122.035095,16.914249 
	C122.570534,17.125269 123.105965,17.336288 123.799767,18.001488 
	C123.947884,18.636181 123.937630,18.816696 123.594543,19.050442 
	C122.168442,20.734009 121.075188,22.364347 119.622437,24.000797 
	C117.516693,25.004034 115.770439,26.001158 114.024185,26.998281 
z"/>
<path fill="#FEF4C3" opacity="1.000000" stroke="none" 
	d="
M57.709934,17.849335 
	C56.264294,18.326298 54.818653,18.803265 53.159775,19.523678 
	C51.890743,20.204836 50.834957,20.642546 49.436134,21.099369 
	C50.690094,16.196264 55.292576,16.326330 59.063171,15.598132 
	C66.375473,14.185946 73.733147,13.623012 79.992798,19.532948 
	C73.653351,18.899714 67.251472,17.921049 60.094582,17.023357 
	C58.796360,17.352663 58.253147,17.601000 57.709934,17.849335 
z"/>
<path fill="#FAA775" opacity="1.000000" stroke="none" 
	d="
M142.037292,37.981739 
	C142.241684,42.159817 142.446060,46.337898 142.344574,50.458931 
	C142.020447,49.595055 142.002197,48.788219 141.990906,47.556335 
	C142.440277,43.961651 141.114655,42.601624 137.898804,42.976242 
	C136.617615,43.125492 135.304092,42.997250 133.952362,42.657799 
	C132.930496,41.215233 131.961594,40.110199 131.247238,39.002827 
	C131.671509,38.998699 131.841217,38.996906 132.449585,38.995152 
	C135.590149,38.664474 138.292053,38.333759 141.254852,38.001083 
	C141.689621,37.993324 141.863464,37.987530 142.037292,37.981739 
z"/>
<path fill="#FBD17B" opacity="1.000000" stroke="none" 
	d="
M128.221298,19.756220 
	C129.702820,20.659441 131.184357,21.562660 132.868332,23.129654 
	C133.386749,25.526821 133.702713,27.260216 133.678955,28.997051 
	C132.560959,29.334845 131.782669,29.669201 130.685150,29.977816 
	C129.579315,29.633303 128.792709,29.314529 127.856506,28.655891 
	C127.779015,25.569590 127.851120,22.823149 127.998116,19.996929 
	C128.073013,19.917152 128.221298,19.756220 128.221298,19.756220 
z"/>
<path fill="#FBC586" opacity="1.000000" stroke="none" 
	d="
M131.004379,30.003555 
	C131.782669,29.669201 132.560959,29.334845 134.084229,28.997488 
	C135.915482,28.985762 137.001724,28.977037 138.087982,28.968311 
	C139.412781,31.725090 140.737579,34.481869 142.049835,37.610191 
	C141.863464,37.987530 141.689621,37.993324 141.109283,37.670792 
	C139.910904,36.582932 139.192551,35.722202 138.313034,35.083309 
	C135.913177,33.340008 133.445297,31.690327 131.004379,30.003555 
z"/>
<path fill="#FA8364" opacity="1.000000" stroke="none" 
	d="
M141.983948,47.981384 
	C142.002197,48.788219 142.020447,49.595055 142.099365,50.801949 
	C142.017883,51.818954 141.875748,52.435898 141.506622,53.280186 
	C141.039932,53.128719 140.800217,52.749908 140.074188,51.923336 
	C138.723862,51.318771 137.859848,51.161968 136.995834,51.005165 
	C136.552872,51.004482 136.109924,51.003799 135.334808,51.004211 
	C132.933380,50.336380 130.864090,49.667450 128.292023,48.740364 
	C127.527260,47.988262 127.265305,47.494316 127.403648,47.000252 
	C128.871735,46.997173 129.939514,46.994205 131.447327,46.993343 
	C135.252884,47.324093 138.618423,47.652737 141.983948,47.981384 
z"/>
<path fill="#23195E" opacity="1.000000" stroke="none" 
	d="
M168.545319,104.332611 
	C168.175629,98.006386 168.092514,91.396912 168.051910,84.338104 
	C171.425064,90.496124 170.660004,97.253296 168.545319,104.332611 
z"/>
<path fill="#F8D799" opacity="1.000000" stroke="none" 
	d="
M138.037140,28.622276 
	C137.001724,28.977037 135.915482,28.985762 134.423950,28.994049 
	C133.702713,27.260216 133.386749,25.526821 133.025909,23.418161 
	C134.649445,24.787346 136.317886,26.531794 138.037140,28.622276 
z"/>
<path fill="#FEF4C3" opacity="1.000000" stroke="none" 
	d="
M45.017654,25.638218 
	C44.590076,25.898361 44.320122,26.072470 43.801537,26.720371 
	C43.296291,27.369453 43.119450,27.668427 42.942612,27.967400 
	C42.942612,27.967400 43.003845,27.989172 42.741524,27.973099 
	C42.479202,27.957026 41.993912,27.991411 41.993912,27.991411 
	C42.288250,23.989454 44.747814,21.963367 48.747093,21.050671 
	C49.119556,21.270952 49.117939,21.441540 48.825577,21.908226 
	C48.210876,22.367146 48.026215,22.628437 47.980846,22.988201 
	C47.647945,23.023600 47.371964,23.167879 46.788830,23.729366 
	C46.223305,24.335636 46.021862,24.633574 45.820415,24.931513 
	C45.512619,25.000710 45.270977,25.166370 45.017654,25.638218 
z"/>
<path fill="#281B60" opacity="1.000000" stroke="none" 
	d="
M10.110125,93.417923 
	C11.089596,97.206108 11.975960,101.427582 12.825233,106.076492 
	C11.864434,102.286362 10.940725,98.068787 10.110125,93.417923 
z"/>
<path fill="#FEF4C3" opacity="1.000000" stroke="none" 
	d="
M115.950958,15.587386 
	C114.533218,16.110001 113.040771,16.279465 111.267120,16.685261 
	C110.214920,16.953405 109.443947,16.985216 108.296234,16.931313 
	C110.155594,14.253512 112.715004,13.257970 115.950958,15.587386 
z"/>
<path fill="#FEF4C3" opacity="1.000000" stroke="none" 
	d="
M83.102371,21.959042 
	C84.772461,23.302589 86.442558,24.646137 88.082726,26.461216 
	C88.052803,26.932747 87.832809,27.177769 87.828949,27.176888 
	C87.825089,27.176006 87.871658,27.184847 87.871658,27.184847 
	C87.871658,27.184847 87.480453,27.013178 87.210144,26.725746 
	C86.647621,26.269627 86.355408,26.100937 86.063202,25.932245 
	C86.063202,25.932245 86.106705,25.971016 86.039505,25.687439 
	C85.674568,25.230772 85.376823,25.057684 85.079079,24.884596 
	C85.079079,24.884596 85.011894,24.907234 84.975250,24.667622 
	C84.647957,24.254890 84.357292,24.081770 84.066635,23.908651 
	C84.066635,23.908651 84.006767,23.991976 83.971420,23.714991 
	C83.636131,23.289335 83.336182,23.140663 83.036232,22.991991 
	C83.036232,22.991991 83.012909,22.987505 83.022888,22.723572 
	C83.056038,22.292772 83.079201,22.125906 83.102371,21.959042 
z"/>
<path fill="#23195E" opacity="1.000000" stroke="none" 
	d="
M140.607193,66.112595 
	C139.197601,66.687286 137.368561,67.163765 135.430740,67.132401 
	C135.246902,66.440422 135.171860,66.256287 135.096802,66.072144 
	C135.096802,66.072144 135.015823,66.128777 135.032227,66.174927 
	C136.761673,66.152184 138.474716,66.083290 140.607193,66.112595 
z"/>
<path fill="#23195E" opacity="1.000000" stroke="none" 
	d="
M164.030151,76.637833 
	C162.775803,75.828926 161.437943,74.702354 160.100128,73.220352 
	C161.382324,74.016663 162.664459,75.168419 164.030151,76.637833 
z"/>
<path fill="#F8C229" opacity="1.000000" stroke="none" 
	d="
M107.768974,17.157600 
	C106.851852,17.979376 105.595238,18.705639 104.143654,18.924242 
	C103.948685,18.416584 103.915176,17.942663 103.915176,17.942663 
	C103.915176,17.942663 103.967804,18.004330 104.260170,17.997524 
	C105.041283,17.685032 105.530029,17.379345 106.018776,17.073662 
	C106.489014,17.069801 106.959244,17.065943 107.768974,17.157600 
z"/>
<path fill="#FEF4C3" opacity="1.000000" stroke="none" 
	d="
M91.683327,27.020683 
	C91.752892,27.768097 91.437172,28.496077 90.723053,29.531816 
	C89.934738,29.795891 89.544830,29.752203 89.154915,29.708515 
	C88.846657,29.050768 88.538399,28.393021 88.019493,27.468063 
	C87.808846,27.200853 87.832809,27.177769 87.832809,27.177769 
	C87.832809,27.177769 88.052803,26.932747 88.159531,26.804401 
	C89.276848,26.784452 90.287445,26.892849 91.683327,27.020683 
z"/>
<path fill="#281B60" opacity="1.000000" stroke="none" 
	d="
M35.686218,66.163330 
	C34.825092,66.670326 33.612259,67.087143 32.191883,67.243675 
	C33.101067,66.679977 34.217793,66.376556 35.686218,66.163330 
z"/>
<path fill="#23195E" opacity="1.000000" stroke="none" 
	d="
M150.233643,67.526146 
	C149.034866,67.551834 147.613953,67.300621 146.070694,66.698792 
	C147.302719,66.648521 148.657120,66.948883 150.233643,67.526146 
z"/>
<path fill="#281B60" opacity="1.000000" stroke="none" 
	d="
M12.482069,82.728195 
	C12.275129,84.525322 11.781165,86.583549 10.937479,88.825287 
	C11.123518,87.002296 11.659281,84.995796 12.482069,82.728195 
z"/>
<path fill="#FEF4C3" opacity="1.000000" stroke="none" 
	d="
M39.516785,32.031387 
	C39.877934,32.326393 39.881622,32.712002 39.644062,33.651596 
	C39.211609,35.105793 39.020401,36.006008 38.829193,36.906223 
	C38.829193,36.906223 38.423004,36.964077 38.219643,36.990501 
	C38.397289,35.385284 38.778305,33.753635 39.516785,32.031387 
z"/>
<path fill="#FEF4C3" opacity="1.000000" stroke="none" 
	d="
M103.549889,17.930441 
	C103.915176,17.942663 103.948685,18.416584 103.956360,18.653816 
	C103.146416,19.196913 102.328796,19.502775 101.000565,19.948582 
	C100.318024,20.041157 100.146103,19.993790 99.974190,19.946423 
	C101.044327,19.270353 102.114464,18.594286 103.549889,17.930441 
z"/>
<path fill="#FEF4C3" opacity="1.000000" stroke="none" 
	d="
M121.979324,16.596802 
	C121.164818,16.802868 120.294533,16.691484 119.203392,16.328999 
	C119.962868,16.145044 120.943214,16.212196 121.979324,16.596802 
z"/>
<path fill="#23195E" opacity="1.000000" stroke="none" 
	d="
M168.113556,83.597076 
	C167.420837,82.820343 166.727219,81.704796 166.070435,80.229561 
	C166.775742,80.999336 167.444199,82.128792 168.113556,83.597076 
z"/>
<path fill="#FEF4C3" opacity="1.000000" stroke="none" 
	d="
M37.362854,38.986679 
	C37.593155,39.764572 37.532425,40.629765 37.259552,41.747978 
	C37.055546,41.025326 37.063686,40.049652 37.362854,38.986679 
z"/>
<path fill="#FBD17B" opacity="1.000000" stroke="none" 
	d="
M123.927383,18.997210 
	C123.937630,18.816696 123.947884,18.636181 124.016647,18.190531 
	C125.311295,18.363979 126.547424,18.802565 128.002426,19.498684 
	C128.221298,19.756220 128.073013,19.917152 127.641541,19.971729 
	C126.493324,20.007776 125.776566,19.989244 124.927742,19.749500 
	C124.506241,19.351261 124.216812,19.174234 123.927383,18.997210 
z"/>
<path fill="#281B60" opacity="1.000000" stroke="none" 
	d="
M25.629946,68.989258 
	C25.147903,69.600822 24.355953,70.288528 23.194229,70.944977 
	C23.656317,70.297615 24.488178,69.681511 25.629946,68.989258 
z"/>
<path fill="#23195E" opacity="1.000000" stroke="none" 
	d="
M158.885925,71.695984 
	C158.055542,71.601715 157.085999,71.221603 156.042084,70.513191 
	C156.894058,70.593307 157.820419,71.001724 158.885925,71.695984 
z"/>
<path fill="#FEF4C3" opacity="1.000000" stroke="none" 
	d="
M105.863617,16.835043 
	C105.530029,17.379345 105.041283,17.685032 104.252876,17.957653 
	C104.538292,17.481867 105.123367,17.039146 105.863617,16.835043 
z"/>
<path fill="#281B60" opacity="1.000000" stroke="none" 
	d="
M44.806213,66.833694 
	C44.343086,67.007828 43.686962,66.964149 42.985580,66.655846 
	C43.497955,66.466110 44.055588,66.541000 44.806213,66.833694 
z"/>
<path fill="#F8C229" opacity="1.000000" stroke="none" 
	d="
M98.814789,21.141685 
	C98.536469,21.790615 98.033836,22.366589 97.212730,22.927181 
	C96.894249,22.911800 96.880447,22.436245 97.188644,22.153255 
	C97.704140,21.602770 97.911438,21.335276 98.118729,21.067781 
	C98.118729,21.067781 98.590477,21.068731 98.814789,21.141685 
z"/>
<path fill="#281B60" opacity="1.000000" stroke="none" 
	d="
M21.766148,71.401260 
	C21.558268,71.905663 21.074314,72.444824 20.292387,72.991959 
	C20.492966,72.478615 20.991520,71.957314 21.766148,71.401260 
z"/>
<path fill="#281B60" opacity="1.000000" stroke="none" 
	d="
M16.725023,76.084717 
	C16.738428,76.522438 16.484554,77.062477 15.915359,77.623482 
	C15.885939,77.158646 16.171841,76.672836 16.725023,76.084717 
z"/>
<path fill="#23195E" opacity="1.000000" stroke="none" 
	d="
M166.077759,79.643745 
	C165.837585,79.727493 165.537491,79.539772 165.148972,79.094345 
	C165.379639,79.015190 165.698746,79.193733 166.077759,79.643745 
z"/>
<path fill="#281B60" opacity="1.000000" stroke="none" 
	d="
M14.588305,78.905273 
	C14.725862,79.118034 14.613409,79.433182 14.276289,79.879669 
	C14.147181,79.676567 14.242738,79.342110 14.588305,78.905273 
z"/>
<path fill="#281B60" opacity="1.000000" stroke="none" 
	d="
M26.748302,68.153069 
	C26.874674,68.533821 26.658770,68.741676 26.140285,68.908035 
	C26.104347,68.651276 26.293787,68.355827 26.748302,68.153069 
z"/>
<path fill="#281B60" opacity="1.000000" stroke="none" 
	d="
M10.303083,89.548981 
	C10.521535,89.699097 10.570727,90.106476 10.419786,90.763008 
	C10.191043,90.610191 10.162434,90.208214 10.303083,89.548981 
z"/>
<path fill="#281B60" opacity="1.000000" stroke="none" 
	d="
M13.521056,80.674118 
	C13.680704,80.885139 13.587194,81.262802 13.250698,81.819168 
	C13.094440,81.612167 13.181170,81.226456 13.521056,80.674118 
z"/>
<path fill="#FB6380" opacity="1.000000" stroke="none" 
	d="
M137.435028,61.134426 
	C137.350204,60.885693 137.543350,60.568707 138.015625,60.176117 
	C138.100861,60.422398 137.906921,60.744286 137.435028,61.134426 
z"/>
<path fill="#FBA520" opacity="1.000000" stroke="none" 
	d="
M95.653465,23.930450 
	C95.745697,24.170834 95.567558,24.472210 95.128723,24.850054 
	C95.039711,24.614828 95.211395,24.303137 95.653465,23.930450 
z"/>
<path fill="#FBA824" opacity="1.000000" stroke="none" 
	d="
M41.953125,28.244213 
	C41.993912,27.991411 42.479202,27.957026 42.722153,27.947002 
	C42.782627,28.217939 42.600151,28.498901 42.188461,28.893433 
	C41.943607,28.837008 41.927971,28.667009 41.953125,28.244213 
z"/>
<path fill="#FBA520" opacity="1.000000" stroke="none" 
	d="
M96.687271,22.978590 
	C96.766502,23.217064 96.575592,23.502747 96.127258,23.856026 
	C96.052261,23.624348 96.234695,23.325073 96.687271,22.978590 
z"/>
<path fill="#FBB70D" opacity="1.000000" stroke="none" 
	d="
M82.839096,21.911982 
	C83.079201,22.125906 83.056038,22.292772 83.021614,22.711761 
	C82.740692,22.767210 82.471031,22.570538 82.121368,22.130272 
	C82.219536,21.879425 82.397682,21.872173 82.839096,21.911982 
z"/>
<path fill="#FEF4C3" opacity="1.000000" stroke="none" 
	d="
M97.860748,21.115070 
	C97.911438,21.335276 97.704140,21.602770 97.241730,21.921375 
	C97.192001,21.702442 97.397385,21.432402 97.860748,21.115070 
z"/>
<path fill="#281B60" opacity="1.000000" stroke="none" 
	d="
M15.357448,77.783653 
	C15.498141,78.001846 15.409623,78.341728 15.054994,78.771881 
	C14.902000,78.543221 15.015118,78.224281 15.357448,77.783653 
z"/>
<path fill="#FB6380" opacity="1.000000" stroke="none" 
	d="
M136.610168,62.198177 
	C136.294678,62.060890 136.208405,61.858799 136.061356,61.332863 
	C136.211197,61.038231 136.421814,61.067444 136.937531,61.198318 
	C137.247330,61.645184 137.112915,61.922981 136.610168,62.198177 
z"/>
<path fill="#F8C229" opacity="1.000000" stroke="none" 
	d="
M99.893814,20.174297 
	C100.146103,19.993790 100.318024,20.041157 100.747063,20.162342 
	C100.753960,20.450111 100.503738,20.664062 99.998367,20.879162 
	C99.743210,20.880310 99.813431,20.402172 99.893814,20.174297 
z"/>
<path fill="#281B60" opacity="1.000000" stroke="none" 
	d="
M28.759039,67.710907 
	C28.890621,67.767685 28.564514,68.098465 28.443630,68.091293 
	C28.299309,67.852081 28.400879,67.708748 28.759039,67.710907 
z"/>
<path fill="#23195E" opacity="1.000000" stroke="none" 
	d="
M160.057709,72.647263 
	C159.836456,72.754936 159.531128,72.605263 159.120026,72.214806 
	C159.334045,72.112656 159.653839,72.251289 160.057709,72.647263 
z"/>
<path fill="#E152A0" opacity="1.000000" stroke="none" 
	d="
M59.544182,74.232697 
	C74.046272,73.822685 88.546562,73.271896 103.051521,73.086472 
	C107.537910,73.029121 112.037018,73.965912 116.765259,75.058014 
	C117.000000,76.109802 116.999779,76.551132 116.999557,76.992455 
	C116.999557,76.992455 116.999779,77.001221 116.699326,77.014175 
	C115.922798,77.332367 115.446732,77.637611 114.532677,77.958542 
	C102.075584,78.093559 90.054558,78.128639 78.039047,78.404442 
	C75.681633,78.458549 73.345596,79.443665 70.631409,79.959732 
	C69.065254,79.654930 67.867378,79.389793 66.412987,78.936203 
	C65.088539,78.284874 64.020615,77.821999 62.952686,77.359116 
	C62.799915,77.285286 62.647148,77.211464 62.169624,76.818275 
	C61.565090,76.337814 61.285313,76.176712 61.005531,76.015610 
	C61.005531,76.015610 61.002438,75.995331 60.877586,75.732895 
	C60.349888,75.057877 59.947033,74.645287 59.544182,74.232697 
z"/>
<path fill="#BF41BE" opacity="1.000000" stroke="none" 
	d="
M105.090446,85.083687 
	C100.816757,88.113518 96.632713,91.286034 92.203850,94.068916 
	C91.148529,94.732018 88.979393,94.609642 87.834923,93.954079 
	C84.711868,92.165161 81.862427,89.898567 79.110466,87.443970 
	C82.672485,86.667870 86.020592,86.171722 89.386703,85.893280 
	C94.258591,85.490280 99.143509,85.244858 104.291428,84.958374 
	C104.736809,85.017586 104.913628,85.050636 105.090446,85.083687 
z"/>
<path fill="#D74CAA" opacity="1.000000" stroke="none" 
	d="
M105.069672,85.062805 
	C104.913628,85.050636 104.736809,85.017586 104.266769,84.550499 
	C102.414734,83.411209 100.866280,82.124077 99.295395,82.096092 
	C89.832924,81.927574 80.365326,82.047646 70.899437,82.071121 
	C70.899437,82.071121 70.988571,82.022766 70.983292,81.713715 
	C70.985237,80.936241 70.992462,80.467819 70.999695,79.999390 
	C73.345596,79.443665 75.681633,78.458549 78.039047,78.404442 
	C90.054558,78.128639 102.075584,78.093559 114.571404,78.007706 
	C115.048126,78.041183 115.131950,78.134125 115.088974,78.347488 
	C115.045998,78.560844 115.010033,78.994644 115.010025,78.994644 
	C114.474419,79.266838 113.938812,79.539047 112.992340,80.059624 
	C112.271889,80.433510 112.095970,80.661995 112.053711,80.993446 
	C111.733917,81.019936 111.422600,81.086220 110.543045,81.213379 
	C109.662415,81.542542 109.358505,81.850624 109.069870,82.112000 
	C109.085129,82.065292 109.166473,82.120438 108.830246,82.107391 
	C108.070702,82.519775 107.647392,82.945206 107.224075,83.370636 
	C107.224083,83.370636 107.233475,83.217857 107.017891,83.234627 
	C106.526474,83.474342 106.250648,83.697296 105.757286,84.063629 
	C105.373085,84.504181 105.206413,84.801338 105.039742,85.098495 
	C105.039742,85.098495 105.048904,85.041931 105.069672,85.062805 
z"/>
<path fill="#D048B3" opacity="1.000000" stroke="none" 
	d="
M71.044968,82.337318 
	C80.365326,82.047646 89.832924,81.927574 99.295395,82.096092 
	C100.866280,82.124077 102.414734,83.411209 103.998215,84.524345 
	C99.143509,85.244858 94.258591,85.490280 89.386703,85.893280 
	C86.020592,86.171722 82.672485,86.667870 78.895523,87.169754 
	C78.039009,87.070122 77.603317,86.867493 76.955551,86.176697 
	C76.412094,85.525490 76.080704,85.362434 75.749306,85.199371 
	C75.749306,85.199371 75.879890,85.184662 75.751045,84.922966 
	C75.006477,84.476784 74.390762,84.292297 73.775040,84.107811 
	C72.913528,83.606377 72.052017,83.104950 71.044968,82.337318 
z"/>
<path fill="#23195E" opacity="1.000000" stroke="none" 
	d="
M131.068024,67.118851 
	C131.236984,67.086487 131.405960,67.054115 132.076981,67.004715 
	C132.733475,67.085136 132.887894,67.182579 133.042328,67.280014 
	C131.135849,68.658638 129.229355,70.037262 127.141312,71.162827 
	C126.959755,70.909767 126.984329,70.472855 126.999100,70.244926 
	C127.013878,70.016998 127.029648,70.035469 127.286667,69.988426 
	C127.738213,69.674850 127.932747,69.408318 128.069519,69.119949 
	C128.011780,69.098114 128.090820,69.192970 128.421371,69.192307 
	C129.291336,68.840469 129.830750,68.489296 130.567856,68.037781 
	C130.965103,67.701057 131.065918,67.428192 131.068024,67.118851 
z"/>
<path fill="#281B60" opacity="1.000000" stroke="none" 
	d="
M63.015305,77.681763 
	C64.020615,77.821999 65.088539,78.284874 66.486435,79.160690 
	C66.816399,79.573639 66.892136,80.039589 66.892136,80.039589 
	C65.620728,79.361198 64.349327,78.682808 63.015305,77.681763 
z"/>
<path fill="#D048B3" opacity="1.000000" stroke="none" 
	d="
M66.928337,80.029495 
	C66.892136,80.039589 66.816399,79.573639 66.742950,79.349152 
	C67.867378,79.389793 69.065254,79.654930 70.631409,79.959732 
	C70.992462,80.467819 70.985237,80.936241 70.955048,81.755829 
	C70.193184,81.777748 69.454292,81.448502 68.307701,80.792313 
	C67.591614,80.341522 67.283218,80.217682 66.974831,80.093849 
	C66.974831,80.093849 66.964539,80.019409 66.928337,80.029495 
z"/>
<path fill="#281B60" opacity="1.000000" stroke="none" 
	d="
M52.044601,70.372620 
	C52.910908,70.485641 53.832188,70.941658 54.889954,71.680061 
	C54.050819,71.546837 53.075199,71.131226 52.044601,70.372620 
z"/>
<path fill="#281B60" opacity="1.000000" stroke="none" 
	d="
M59.290588,74.183014 
	C59.947033,74.645287 60.349888,75.057877 60.867481,75.734772 
	C60.022697,75.557732 59.063168,75.116379 58.062927,74.330521 
	C58.360477,74.035126 58.698738,74.084229 59.290588,74.183014 
z"/>
<path fill="#281B60" opacity="1.000000" stroke="none" 
	d="
M55.073395,72.316071 
	C55.934002,72.452477 56.832325,72.936394 57.869789,73.698944 
	C57.042992,73.539574 56.077057,73.101578 55.073395,72.316071 
z"/>
<path fill="#FDFDFE" opacity="1.000000" stroke="none" 
	d="
M133.368927,67.221054 
	C132.887894,67.182579 132.733475,67.085136 132.316376,66.908401 
	C132.859421,66.477592 133.665100,66.126068 134.783798,65.923347 
	C135.171860,66.256287 135.246902,66.440422 135.169189,66.880844 
	C134.576126,67.145454 134.135818,67.153778 133.368927,67.221054 
z"/>
<path fill="#D74CAA" opacity="1.000000" stroke="none" 
	d="
M117.244064,77.004349 
	C116.999779,76.551132 117.000000,76.109802 117.001175,75.337601 
	C117.516075,75.035446 118.030006,75.064171 118.920975,75.188553 
	C119.298004,75.284210 119.212997,75.757286 118.883102,75.999420 
	C118.229195,76.384789 118.037079,76.630981 117.976845,76.980133 
	C117.976845,76.980133 117.488579,77.016243 117.244064,77.004349 
z"/>
<path fill="#D74CAA" opacity="1.000000" stroke="none" 
	d="
M115.009399,77.992020 
	C115.446732,77.637611 115.922798,77.332367 116.694397,77.012726 
	C116.989922,76.998337 116.942116,77.349670 116.614349,77.580200 
	C115.901711,77.918526 115.516830,78.026329 115.131950,78.134125 
	C115.131950,78.134125 115.048126,78.041183 115.009399,77.992020 
z"/>
<path fill="#23195E" opacity="1.000000" stroke="none" 
	d="
M115.088974,78.347488 
	C115.516830,78.026329 115.901711,77.918526 116.581993,77.754501 
	C116.467194,78.118958 116.056984,78.539627 115.328400,78.977470 
	C115.010033,78.994644 115.045998,78.560844 115.088974,78.347488 
z"/>
<path fill="#E152A0" opacity="1.000000" stroke="none" 
	d="
M119.451973,75.281204 
	C119.582863,74.883179 120.016212,74.472481 120.718994,74.276527 
	C120.988411,74.491280 120.922501,74.955429 120.922501,74.955429 
	C120.533150,75.059792 120.143791,75.164154 119.451973,75.281204 
z"/>
<path fill="#BF41BE" opacity="1.000000" stroke="none" 
	d="
M73.951591,84.366501 
	C74.390762,84.292297 75.006477,84.476784 75.726837,84.984039 
	C75.263695,85.079613 74.695923,84.852409 73.951591,84.366501 
z"/>
<path fill="#23195E" opacity="1.000000" stroke="none" 
	d="
M110.463631,82.035172 
	C110.143944,82.366341 109.824265,82.697517 109.307045,82.797607 
	C109.109512,82.566528 109.166473,82.120438 109.166473,82.120438 
	C109.166473,82.120438 109.085129,82.065292 109.422768,82.086365 
	C109.994820,82.083351 110.229225,82.059258 110.463631,82.035172 
z"/>
<path fill="#D048B3" opacity="1.000000" stroke="none" 
	d="
M108.830246,82.107391 
	C109.166473,82.120438 109.109512,82.566528 109.088730,82.790314 
	C108.662292,83.121559 108.256638,83.229012 107.537537,83.353546 
	C107.647392,82.945206 108.070702,82.519775 108.830246,82.107391 
z"/>
<path fill="#D048B3" opacity="1.000000" stroke="none" 
	d="
M105.974815,83.920242 
	C106.250648,83.697296 106.526474,83.474342 107.078300,83.281616 
	C107.320465,83.490158 107.286644,83.668472 106.941711,84.043564 
	C106.630600,84.240349 106.211227,84.244064 106.154221,84.161583 
	C106.097206,84.079102 105.974815,83.920242 105.974815,83.920242 
z"/>
<path fill="#281B60" opacity="1.000000" stroke="none" 
	d="
M67.102585,80.311012 
	C67.283218,80.217682 67.591614,80.341522 68.015900,80.693726 
	C67.831306,80.790794 67.530830,80.659485 67.102585,80.311012 
z"/>
<path fill="#BF41BE" opacity="1.000000" stroke="none" 
	d="
M105.316162,85.099480 
	C105.206413,84.801338 105.373085,84.504181 105.757286,84.063629 
	C105.974815,83.920242 106.097206,84.079102 106.125366,84.356606 
	C106.153534,84.634109 106.140755,85.028664 106.140755,85.028664 
	C105.958038,85.052589 105.775314,85.076523 105.316162,85.099480 
z"/>
<path fill="#23195E" opacity="1.000000" stroke="none" 
	d="
M106.323547,84.963737 
	C106.140755,85.028664 106.153534,84.634109 106.182381,84.439087 
	C106.211227,84.244064 106.630600,84.240349 106.833313,84.293289 
	C106.917809,84.586365 106.741241,84.770554 106.323547,84.963737 
z"/>
<path fill="#BF41BE" opacity="1.000000" stroke="none" 
	d="
M75.845856,85.463440 
	C76.080704,85.362434 76.412094,85.525490 76.834320,85.961952 
	C76.597565,86.066078 76.269989,85.896797 75.845856,85.463440 
z"/>
<path fill="#23195E" opacity="1.000000" stroke="none" 
	d="
M112.255783,80.939346 
	C112.095970,80.661995 112.271889,80.433510 112.806290,80.301453 
	C112.909790,80.559448 112.718712,80.756226 112.255783,80.939346 
z"/>
<path fill="#D048B3" opacity="1.000000" stroke="none" 
	d="
M110.510017,81.819817 
	C110.229225,82.059258 109.994820,82.083351 109.407501,82.133072 
	C109.358505,81.850624 109.662415,81.542542 110.303879,81.203308 
	C110.641441,81.172165 110.556404,81.604462 110.510017,81.819817 
z"/>
<path fill="#281B60" opacity="1.000000" stroke="none" 
	d="
M49.188866,68.764427 
	C49.209427,68.552086 49.681961,68.635094 49.845009,68.811188 
	C49.728142,68.983772 49.448227,68.980270 49.188866,68.764427 
z"/>
<path fill="#23195E" opacity="1.000000" stroke="none" 
	d="
M124.152641,72.893585 
	C124.116631,72.690254 124.317375,72.438805 124.767616,72.163193 
	C124.905937,72.461655 124.696701,72.697136 124.152641,72.893585 
z"/>
<path fill="#23195E" opacity="1.000000" stroke="none" 
	d="
M121.158401,74.900375 
	C120.922501,74.955429 120.988411,74.491280 121.044800,74.263718 
	C121.101181,74.036156 121.565170,74.056892 121.793991,74.095627 
	C121.909035,74.455978 121.699532,74.692970 121.158401,74.900375 
z"/>
<path fill="#281B60" opacity="1.000000" stroke="none" 
	d="
M61.103073,76.240242 
	C61.285313,76.176712 61.565090,76.337814 61.927692,76.739273 
	C61.671356,76.916893 61.401390,76.745300 61.103073,76.240242 
z"/>
<path fill="#23195E" opacity="1.000000" stroke="none" 
	d="
M118.199287,76.922607 
	C118.037079,76.630981 118.229195,76.384789 118.794647,76.222870 
	C118.913528,76.500938 118.708748,76.721230 118.199287,76.922607 
z"/>
<path fill="#FF7C54" opacity="1.000000" stroke="none" 
	d="
M127.003357,47.000366 
	C127.265305,47.494316 127.527260,47.988262 127.897629,48.740639 
	C125.225677,49.332535 122.446518,49.942886 119.664764,49.954948 
	C100.202065,50.039368 80.738823,50.004986 61.275753,49.997711 
	C54.876385,49.995319 48.467213,50.142097 42.085415,49.797176 
	C40.705307,49.722584 39.423668,47.826138 38.058472,46.409534 
	C41.116405,46.033340 44.212536,46.002476 47.308678,46.001865 
	C67.609390,45.997860 87.910240,46.038284 108.210716,45.968678 
	C112.251015,45.954826 116.289902,45.528027 121.032547,45.148926 
	C123.491562,45.670921 125.247459,46.335644 127.003357,47.000366 
z"/>
<path fill="#FE903D" opacity="1.000000" stroke="none" 
	d="
M40.077671,38.383045 
	C47.914761,37.670147 55.825344,37.154919 63.741814,37.037819 
	C80.961922,36.783085 98.185043,36.731411 115.971725,36.490120 
	C117.025085,37.587345 117.513641,38.791187 118.002197,39.995029 
	C116.072250,40.330341 114.143265,40.950645 112.212212,40.957169 
	C91.458572,41.027267 70.703682,41.097519 49.951679,40.900169 
	C46.679245,40.869049 43.419464,39.507603 40.077671,38.383045 
z"/>
<path fill="#FEA04F" opacity="1.000000" stroke="none" 
	d="
M118.260971,40.103111 
	C117.513641,38.791187 117.025085,37.587345 116.268661,36.196487 
	C115.681610,35.220642 115.362419,34.431805 115.022789,33.322044 
	C115.002350,33.001122 115.013680,33.002701 115.381042,32.997498 
	C117.163574,32.661186 118.578735,32.330070 119.999908,32.364128 
	C121.332603,34.154793 122.659294,35.580284 123.989227,37.404797 
	C123.997208,38.867661 124.001938,39.931496 123.605881,40.996376 
	C122.136253,41.000210 121.067413,41.002995 119.998573,41.005783 
	C119.505630,40.740921 119.012688,40.476059 118.260971,40.103111 
z"/>
<path fill="#FE905A" opacity="1.000000" stroke="none" 
	d="
M120.138107,41.325394 
	C121.067413,41.002995 122.136253,41.000210 123.961670,41.036331 
	C126.476921,41.718304 128.235596,42.361366 130.027618,43.348904 
	C130.376389,44.792671 130.691849,45.891956 131.007309,46.991241 
	C129.939514,46.994205 128.871735,46.997173 127.403648,47.000252 
	C125.247459,46.335644 123.491562,45.670921 121.371643,45.001572 
	C120.764297,43.879635 120.520966,42.762321 120.138107,41.325394 
z"/>
<path fill="#FE903D" opacity="1.000000" stroke="none" 
	d="
M39.116135,36.939293 
	C39.020401,36.006008 39.211609,35.105793 39.638279,33.943436 
	C39.913273,34.514320 39.952805,35.347355 39.985939,36.595089 
	C39.787388,36.997318 39.595234,36.984844 39.116135,36.939293 
z"/>
<path fill="#FE775E" opacity="1.000000" stroke="none" 
	d="
M137.041794,51.328850 
	C137.859848,51.161968 138.723862,51.318771 139.793549,51.738358 
	C139.028748,51.884937 138.058243,51.768738 137.041794,51.328850 
z"/>
<path fill="#FBA824" opacity="1.000000" stroke="none" 
	d="
M85.157379,25.138523 
	C85.376823,25.057684 85.674568,25.230772 86.048019,25.659571 
	C85.827705,25.741005 85.531693,25.566729 85.157379,25.138523 
z"/>
<path fill="#FBA824" opacity="1.000000" stroke="none" 
	d="
M86.033043,26.198421 
	C86.355408,26.100937 86.647621,26.269627 86.998596,26.696112 
	C86.881447,26.967140 86.705513,26.980373 86.264969,26.996979 
	C86.001205,26.821768 86.002045,26.643183 86.033043,26.198421 
z"/>
<path fill="#FBA824" opacity="1.000000" stroke="none" 
	d="
M46.092655,24.855282 
	C46.021862,24.633574 46.223305,24.335636 46.683113,23.942701 
	C46.749283,24.158155 46.557091,24.468603 46.092655,24.855282 
z"/>
<path fill="#FBB70D" opacity="1.000000" stroke="none" 
	d="
M83.138718,23.219616 
	C83.336182,23.140663 83.636131,23.289335 84.013084,23.685055 
	C83.738388,23.890770 83.455421,23.729149 83.138718,23.219616 
z"/>
<path fill="#FBA824" opacity="1.000000" stroke="none" 
	d="
M48.208260,22.916092 
	C48.026215,22.628437 48.210876,22.367146 48.778946,22.159834 
	C48.919888,22.432888 48.724094,22.675768 48.208260,22.916092 
z"/>
<path fill="#FBB70D" opacity="1.000000" stroke="none" 
	d="
M84.151367,24.150848 
	C84.357292,24.081770 84.647957,24.254890 85.007965,24.681271 
	C84.796921,24.754036 84.516510,24.573540 84.151367,24.150848 
z"/>
<path fill="#F85E86" opacity="1.000000" stroke="none" 
	d="
M51.056644,66.390167 
	C56.310928,65.681633 61.640171,65.094246 66.974136,65.047737 
	C82.256187,64.914474 97.540314,64.970688 112.823090,65.052620 
	C114.156639,65.059769 115.486252,65.802986 116.441406,66.601974 
	C106.097595,67.000092 96.128296,66.905762 86.164200,67.090958 
	C84.431313,67.123169 82.720352,68.335289 80.999268,69.002434 
	C73.455872,69.001587 65.905762,69.179581 58.372932,68.897003 
	C55.936562,68.805611 53.545528,67.505508 51.056644,66.390167 
z"/>
<path fill="#F35A8D" opacity="1.000000" stroke="none" 
	d="
M81.240303,69.304283 
	C82.720352,68.335289 84.431313,67.123169 86.164200,67.090958 
	C96.128296,66.905762 106.097595,67.000092 116.534134,66.997833 
	C117.752190,66.996567 118.501236,66.997101 119.872032,67.273216 
	C122.656029,68.034668 124.818268,68.520523 126.988968,69.263840 
	C127.008163,69.692688 127.018906,69.864075 127.029648,70.035469 
	C127.029648,70.035469 127.013878,70.016998 127.027451,70.027969 
	C113.902298,70.359077 100.764511,70.745110 87.623894,70.930435 
	C85.583000,70.959213 83.529182,70.070541 81.240303,69.304283 
z"/>
<path fill="#F85E86" opacity="1.000000" stroke="none" 
	d="
M126.980507,69.006386 
	C124.818268,68.520523 122.656029,68.034668 120.246597,67.272842 
	C123.370773,63.315388 127.014175,64.625130 130.875870,66.766708 
	C131.065918,67.428192 130.965103,67.701057 130.216003,68.009514 
	C129.141235,68.452049 128.616028,68.822510 128.090820,69.192963 
	C128.090820,69.192970 128.011780,69.098114 127.784958,69.061195 
	C127.365585,69.018311 127.173050,69.012344 126.980507,69.006386 
z"/>
<path fill="#FE9C29" opacity="1.000000" stroke="none" 
	d="
M88.985443,30.049187 
	C89.544830,29.752203 89.934738,29.795891 90.618378,29.817072 
	C91.785416,30.831020 92.706497,32.798607 93.524490,32.756641 
	C100.078064,32.420425 106.612167,31.704494 113.679504,31.307665 
	C114.475739,32.007935 114.744713,32.505318 115.013680,33.002701 
	C115.013680,33.002701 115.002350,33.001122 114.995674,33.002384 
	C111.329887,33.668892 107.676422,34.870468 104.010704,34.909107 
	C85.401100,35.105259 66.788177,35.030369 48.176876,34.947834 
	C46.510265,34.940441 44.846905,34.199028 43.088245,33.403404 
	C53.960011,32.827644 64.936447,32.875103 75.885712,32.352726 
	C80.193855,32.147194 85.004990,34.177425 88.985443,30.049187 
z"/>
<path fill="#FBA824" opacity="1.000000" stroke="none" 
	d="
M43.185005,27.854015 
	C43.119450,27.668427 43.296291,27.369453 43.707405,26.948719 
	C43.770256,27.131517 43.598827,27.436075 43.185005,27.854015 
z"/>
<path fill="#FDFDFE" opacity="1.000000" stroke="none" 
	d="
M87.828949,27.176888 
	C87.832809,27.177769 87.808846,27.200853 87.794792,27.177582 
	C87.780739,27.154312 87.781319,27.183193 87.826492,27.184021 
	C87.871658,27.184847 87.825089,27.176006 87.828949,27.176888 
z"/>
<path fill="#FBA824" opacity="1.000000" stroke="none" 
	d="
M58.021942,17.888977 
	C58.253147,17.601000 58.796360,17.352663 59.641571,17.149815 
	C59.407032,17.439741 58.870495,17.684177 58.021942,17.888977 
z"/>
<path fill="#FDB63C" opacity="1.000000" stroke="none" 
	d="
M115.381042,32.997498 
	C114.744713,32.505318 114.475739,32.007935 114.092995,31.250599 
	C113.989014,29.926144 113.998802,28.861643 114.016388,27.397709 
	C115.770439,26.001158 117.516693,25.004034 119.595978,24.347101 
	C119.954506,26.455063 119.979996,28.222836 120.002487,30.325462 
	C119.997627,31.106531 119.995758,31.552744 119.993896,31.998959 
	C118.578735,32.330070 117.163574,32.661186 115.381042,32.997498 
z"/>
<path fill="#FDC350" opacity="1.000000" stroke="none" 
	d="
M120.005493,29.990604 
	C119.979996,28.222836 119.954506,26.455063 119.955475,24.340988 
	C121.075188,22.364347 122.168442,20.734009 123.594543,19.050442 
	C124.216812,19.174234 124.506241,19.351261 124.908264,20.154221 
	C124.346352,23.850264 123.671837,26.920376 122.623306,29.992966 
	C121.501358,29.993834 120.753426,29.992218 120.005493,29.990604 
z"/>
<path fill="#FDBA7A" opacity="1.000000" stroke="none" 
	d="
M130.685150,29.977816 
	C133.445297,31.690327 135.913177,33.340008 138.313034,35.083309 
	C139.192551,35.722202 139.910904,36.582932 140.848373,37.672756 
	C138.292053,38.333759 135.590149,38.664474 132.441971,38.630951 
	C130.331543,36.179981 128.667389,34.093250 127.127617,31.710220 
	C127.503365,30.607870 127.754738,29.801815 128.006104,28.995756 
	C128.792709,29.314529 129.579315,29.633303 130.685150,29.977816 
z"/>
<path fill="#FE9669" opacity="1.000000" stroke="none" 
	d="
M131.447327,46.993343 
	C130.691849,45.891956 130.376389,44.792671 130.428787,43.347198 
	C131.866180,42.999119 132.935745,42.997223 134.005295,42.995331 
	C135.304092,42.997250 136.617615,43.125492 137.898804,42.976242 
	C141.114655,42.601624 142.440277,43.961651 141.990906,47.556335 
	C138.618423,47.652737 135.252884,47.324093 131.447327,46.993343 
z"/>
<path fill="#FEA164" opacity="1.000000" stroke="none" 
	d="
M133.952362,42.657799 
	C132.935745,42.997223 131.866180,42.999119 130.395447,43.002720 
	C128.235596,42.361366 126.476921,41.718304 124.362457,41.035290 
	C124.001938,39.931496 123.997208,38.867661 124.244034,37.402550 
	C124.665352,37.000195 124.835114,36.999104 125.361015,37.037392 
	C127.475655,37.719563 129.234161,38.362362 130.992676,39.005165 
	C131.961594,40.110199 132.930496,41.215233 133.952362,42.657799 
z"/>
<path fill="#FEB06A" opacity="1.000000" stroke="none" 
	d="
M131.247238,39.002823 
	C129.234161,38.362362 127.475655,37.719563 125.359772,36.621353 
	C125.001411,34.779385 125.000427,33.392830 125.333382,32.004627 
	C126.112625,32.004158 126.557922,32.005341 127.003235,32.006516 
	C128.667389,34.093250 130.331543,36.179981 132.003311,38.630917 
	C131.841217,38.996906 131.671509,38.998699 131.247238,39.002823 
z"/>
<path fill="#FDC564" opacity="1.000000" stroke="none" 
	d="
M127.127609,31.710224 
	C126.557922,32.005341 126.112625,32.004158 125.213516,31.736923 
	C124.172249,30.977406 123.584785,30.483946 122.997314,29.990486 
	C123.671837,26.920376 124.346352,23.850264 125.040344,20.375433 
	C125.776566,19.989244 126.493324,20.007776 127.566650,20.051508 
	C127.851120,22.823149 127.779015,25.569590 127.856506,28.655895 
	C127.754738,29.801815 127.503365,30.607870 127.127609,31.710224 
z"/>
<path fill="#EA5894" opacity="1.000000" stroke="none" 
	d="
M128.421371,69.192299 
	C128.616028,68.822510 129.141235,68.452049 130.018311,68.109863 
	C129.830750,68.489296 129.291336,68.840469 128.421371,69.192299 
z"/>
<path fill="#EA5894" opacity="1.000000" stroke="none" 
	d="
M126.988968,69.263840 
	C127.173050,69.012344 127.365585,69.018311 127.842697,69.083031 
	C127.932747,69.408318 127.738213,69.674850 127.286667,69.988426 
	C127.018906,69.864075 127.008163,69.692688 126.988968,69.263840 
z"/>
<path fill="#FDAF59" opacity="1.000000" stroke="none" 
	d="
M122.623306,29.992966 
	C123.584785,30.483946 124.172249,30.977406 124.879578,31.738571 
	C125.000427,33.392830 125.001411,34.779385 125.003639,36.581978 
	C124.835114,36.999104 124.665352,37.000195 124.240791,37.003525 
	C122.659294,35.580284 121.332603,34.154793 119.999901,32.364128 
	C119.995758,31.552744 119.997627,31.106531 120.002487,30.325460 
	C120.753426,29.992218 121.501358,29.993834 122.623306,29.992966 
z"/>
</svg>
